<?xml version="1.0" encoding="UTF-8" standalone="no"?>
<!-- Created with Inkscape (http://www.inkscape.org/) -->

<svg
   xmlns:dc="http://purl.org/dc/elements/1.1/"
   xmlns:cc="http://creativecommons.org/ns#"
   xmlns:rdf="http://www.w3.org/1999/02/22-rdf-syntax-ns#"
   xmlns:svg="http://www.w3.org/2000/svg"
   xmlns="http://www.w3.org/2000/svg"
   xmlns:sodipodi="http://sodipodi.sourceforge.net/DTD/sodipodi-0.dtd"
   xmlns:inkscape="http://www.inkscape.org/namespaces/inkscape"
   width="16px"
   height="16px"
   id="svg2985"
   version="1.1"
   inkscape:version="0.48.2 r9819"
   sodipodi:docname="main.svg"
   inkscape:export-filename="C:\NewIBIS\gal\modeling-ws\ios-developer\icons\main.png"
   inkscape:export-xdpi="90"
   inkscape:export-ydpi="90">
  <defs
     id="defs2987">
    <inkscape:perspective
       sodipodi:type="inkscape:persp3d"
       inkscape:vp_x="-6.6241888 : 22.505508 : 1"
       inkscape:vp_y="2875.2801 : -2.5002719 : 0"
       inkscape:vp_z="-6.6698216 : -35.626222 : 1"
       inkscape:persp3d-origin="-14.314419 : -6.5536899 : 1"
       id="perspective2993" />
  </defs>
  <sodipodi:namedview
     id="base"
     pagecolor="#ffffff"
     bordercolor="#666666"
     borderopacity="1.0"
     inkscape:pageopacity="0.0"
     inkscape:pageshadow="2"
     inkscape:zoom="1.962027"
     inkscape:cx="267.0093"
     inkscape:cy="9.7139397"
     inkscape:current-layer="layer1"
     showgrid="true"
     inkscape:grid-bbox="true"
     inkscape:document-units="px"
     inkscape:window-width="1440"
     inkscape:window-height="783"
     inkscape:window-x="0"
     inkscape:window-y="0"
     inkscape:window-maximized="1" />
  <metadata
     id="metadata2990">
    <rdf:RDF>
      <cc:Work
         rdf:about="">
        <dc:format>image/svg+xml</dc:format>
        <dc:type
           rdf:resource="http://purl.org/dc/dcmitype/StillImage" />
        <dc:title></dc:title>
      </cc:Work>
    </rdf:RDF>
  </metadata>
  <g
     id="layer1"
     inkscape:label="Layer 1"
     inkscape:groupmode="layer">
    <text
       xml:space="preserve"
       style="font-size:9.03761578px;font-style:normal;font-weight:normal;line-height:125%;letter-spacing:0px;word-spacing:0px;fill:#000000;fill-opacity:1;stroke:none;font-family:Sans"
       x="0.41518712"
       y="16.186821"
       id="text3067"
       sodipodi:linespacing="125%"
       transform="scale(1.3104201,0.76311405)"><tspan
         sodipodi:role="line"
         id="tspan3069"
         x="0.41518712"
         y="16.186821" /></text>
    <path
       style="font-size:13.99213886px;font-style:normal;font-weight:normal;line-height:125%;letter-spacing:0px;word-spacing:0px;fill:#000000;fill-opacity:1;stroke:none;font-family:Sans"
       d="m 0.14503014,0.03244303 0,1.44025207 1.95726556,0 0,-1.44025207 -1.95726556,0 z M 10.780738,2.5436517 c -1.7062373,7.1e-6 -3.0184616,0.321798 -3.9883907,0.960168 -0.9628546,0.6383822 -1.4402532,1.5294956 -1.4402521,2.6589269 -1.1e-6,1.125346 0.4773975,2.0164594 1.4402521,2.6589269 0.9699291,0.6383769 2.2821534,0.9601678 3.9883907,0.9601681 1.699144,-3e-7 3.055378,-0.3217912 4.02532,-0.9601681 0.969921,-0.6424675 1.440241,-1.5335809 1.440252,-2.6589269 -1.1e-5,-1.1294313 -0.470331,-2.0205447 -1.440252,-2.6589269 -0.969942,-0.63837 -2.326176,-0.9601609 -4.02532,-0.960168 z m -10.63570786,0.1846477 0,6.8688945 1.95726556,0 0,-6.8688945 -1.95726556,0 z M 10.780738,3.5038197 c 1.040723,6.1e-6 1.865407,0.2598141 2.474279,0.7385908 0.608854,0.4746954 0.923229,1.1060008 0.923239,1.9203361 -10e-6,0.8184345 -0.314385,1.4825771 -0.923239,1.9572657 -0.608872,0.4746914 -1.433556,0.701662 -2.474279,0.7016612 C 9.7258421,8.8216743 8.9153165,8.5906116 8.3064584,8.1200123 7.7046718,7.6453237 7.3832166,6.9852733 7.3832199,6.1627466 7.3832166,5.3402269 7.6975919,4.7130137 8.3064584,4.2424105 8.9153165,3.7677259 9.7329219,3.5038258 10.780738,3.5038197 z M 7.4940086,9.5602643 c -0.8100188,9.3e-6 -1.4430111,0.2359333 -1.8834066,0.7016617 -0.4403982,0.465745 -0.6278029,1.101616 -0.6278022,1.957265 -7e-7,0.704027 0.1443126,1.255669 0.4431545,1.66183 0.2988395,0.400754 0.7678579,0.728283 1.4402521,0.923238 l 0.3692954,0.110789 c 0.6723886,0.200379 1.1328534,0.411183 1.3294634,0.627802 0.2005336,0.216624 0.2954317,0.517075 0.2954363,0.923238 -4.6e-6,0.438662 -0.1309811,0.790329 -0.4062249,1.034027 C 8.1789244,17.7384 7.7836032,17.869412 7.2724313,17.869411 6.8910132,17.869412 6.4799636,17.788638 6.090686,17.647834 5.7014048,17.501615 5.3100158,17.270128 4.9089408,16.983102 l 0,1.55104 c 0.4246677,0.189545 0.8372579,0.314162 1.2186748,0.406225 0.3853454,0.09748 0.7539929,0.147719 1.1078862,0.147719 0.8493337,0 1.5105401,-0.245776 1.9941951,-0.738591 C 9.7172744,17.856681 9.9682818,17.200127 9.9682877,16.3553 9.9682818,15.613373 9.8145639,15.031197 9.4882037,14.619611 9.1657651,14.202618 8.5970653,13.886901 7.8263744,13.659443 L 7.457079,13.548655 C 6.8751229,13.369948 6.5049348,13.189677 6.3122633,12.994712 6.1195876,12.794342 6.0168252,12.528863 6.016827,12.182262 c -1.8e-6,-0.454899 0.138839,-0.806567 0.4062249,-1.034027 0.2713137,-0.227445 0.6799717,-0.332358 1.2186748,-0.332366 0.353887,8e-6 0.6667955,0.03941 0.9970976,0.147718 0.3302932,0.108319 0.6534577,0.26347 0.960168,0.480084 l 0,-1.403323 C 9.3001463,9.8778909 8.9927102,9.7522952 8.6388243,9.6710529 8.2849296,9.589829 7.895081,9.5602736 7.4940086,9.5602643 z"
       id="text2986"
       inkscape:connector-curvature="0"
       inkscape:export-filename="/Users/anivamainali/Desktop/Projects/WS/MyWS/Laexian_Box2D_Editor/com.laex.cg2d.core/icons/sloot_16x16.png"
       inkscape:export-xdpi="90"
       inkscape:export-ydpi="90" />
    <path
       inkscape:connector-curvature="0"
       id="path2990"
       d="m 23.080494,0.03244303 0,2.87634877 3.908883,0 0,-2.87634877 -3.908883,0 z M 44.321224,5.047615 c -3.407551,1.42e-5 -6.028215,0.6426676 -7.965275,1.9175658 -1.922932,1.2749225 -2.87635,3.0545782 -2.876348,5.3101822 -2e-6,2.247445 0.953416,4.027101 2.876348,5.310182 1.93706,1.274912 4.557724,1.917566 7.965275,1.917566 3.393385,0 6.10194,-0.642654 8.039026,-1.917566 1.937044,-1.283081 2.876327,-3.062737 2.876349,-5.310182 C 55.236577,10.019759 54.297294,8.2401033 52.36025,6.9651808 50.423164,5.6902826 47.714609,5.0476292 44.321224,5.047615 z m -21.24073,0.3687627 0,13.7179713 3.908883,0 0,-13.7179713 -3.908883,0 z m 21.24073,1.5488031 c 2.078443,1.21e-5 3.725432,0.5188785 4.941419,1.4750506 1.215951,0.9480212 1.843794,2.2088106 1.843814,3.8351316 -2e-5,1.634508 -0.627863,2.960877 -1.843814,3.908884 -1.215987,0.948014 -2.862976,1.4013 -4.941419,1.401298 -2.106749,2e-6 -3.725462,-0.461457 -4.941421,-1.401298 -1.201838,-0.948007 -1.843821,-2.266204 -1.843813,-3.908884 -8e-6,-1.642666 0.627837,-2.895283 1.843813,-3.8351316 1.215959,-0.9479997 2.848812,-1.4750385 4.941421,-1.4750506 z M 37.757247,19.060596 c -1.617701,1.8e-5 -2.881859,0.471186 -3.761378,1.401299 -0.879528,0.930146 -1.253795,2.200053 -1.253795,3.908883 0,1.406023 0.28821,2.507715 0.885031,3.318865 0.596816,0.800352 1.533501,1.454465 2.876349,1.843812 l 0.737525,0.221259 c 1.342838,0.40018 2.262439,0.821179 2.655092,1.253792 0.400487,0.432623 0.590011,1.032658 0.590019,1.843813 -8e-6,0.876058 -0.261584,1.578377 -0.811278,2.06507 -0.549709,0.475883 -1.339211,0.737529 -2.36008,0.737527 -0.761736,2e-6 -1.58265,-0.161307 -2.36008,-0.442515 -0.777441,-0.292016 -1.55909,-0.754322 -2.360083,-1.327546 l 0,3.097605 c 0.848111,0.378543 1.672101,0.627417 2.433834,0.811278 0.76958,0.194679 1.505811,0.295012 2.212576,0.295012 1.696217,0 3.016723,-0.490843 3.982638,-1.475051 0.973747,-0.984207 1.475039,-2.29542 1.475051,-3.982637 -1.2e-5,-1.481713 -0.307005,-2.644385 -0.958783,-3.46637 -0.643948,-0.832783 -1.779707,-1.463306 -3.318865,-1.917566 L 37.683495,27.02587 c -1.162233,-0.356898 -1.901543,-0.71692 -2.286329,-1.106288 -0.384796,-0.400162 -0.590023,-0.930354 -0.590019,-1.622556 -4e-6,-0.908485 0.277277,-1.610807 0.811278,-2.06507 0.541843,-0.454234 1.35798,-0.663757 2.433832,-0.663773 0.706752,1.6e-5 1.331668,0.07871 1.991319,0.295009 0.659633,0.216326 1.30503,0.52618 1.917565,0.958783 l 0,-2.802597 c -0.596829,-0.324445 -1.210814,-0.575274 -1.917565,-0.737525 -0.706769,-0.162213 -1.48534,-0.221239 -2.286329,-0.221257 z"
       style="font-size:13.99213886px;font-style:normal;font-weight:normal;line-height:125%;letter-spacing:0px;word-spacing:0px;fill:#000000;fill-opacity:1;stroke:none;font-family:Sans"
       inkscape:export-filename="/Users/anivamainali/Desktop/Projects/WS/MyWS/Laexian_Box2D_Editor/com.laex.cg2d.core/icons/sloot_24x24.png"
       inkscape:export-xdpi="90"
       inkscape:export-ydpi="90" />
    <path
       style="font-size:13.99213886px;font-style:normal;font-weight:normal;line-height:125%;letter-spacing:0px;word-spacing:0px;fill:#000000;fill-opacity:1;stroke:none;font-family:Sans"
       d="m 130.87717,1.5614742 0,5.725747 7.78114,0 0,-5.725747 -7.78114,0 z m 42.28244,9.9833528 c -6.78317,2.8e-5 -11.99994,1.279314 -15.85591,3.817165 -3.82785,2.537899 -5.72575,6.080535 -5.72575,10.570609 0,4.473829 1.8979,8.016469 5.72575,10.570609 3.85597,2.53788 9.07274,3.81716 15.85591,3.81716 6.75498,0 12.14671,-1.27928 16.00273,-3.81716 3.85594,-2.55414 5.7257,-6.09678 5.72575,-10.570609 -5e-5,-4.490074 -1.86981,-8.03271 -5.72575,-10.570609 -3.85602,-2.537851 -9.24775,-3.817137 -16.00273,-3.817165 z m -42.28244,0.73407 0,27.307413 7.78114,0 0,-27.307413 -7.78114,0 z m 42.28244,3.083095 c 4.13741,2.4e-5 7.41596,1.032895 9.83654,2.93628 2.42051,1.88716 3.67031,4.396925 3.67035,7.634329 -4e-5,3.253699 -1.24984,5.894009 -3.67035,7.781139 -2.42058,1.88715 -5.69913,2.78947 -9.83654,2.78947 -4.19375,0 -7.41601,-0.91859 -9.83654,-2.78947 -2.39241,-1.88713 -3.67036,-4.51117 -3.67035,-7.781139 -10e-6,-3.269941 1.24979,-5.763438 3.67035,-7.634329 2.42053,-1.887117 5.67093,-2.936256 9.83654,-2.93628 z M 160.09316,39.43949 c -3.22024,4e-5 -5.73671,0.93796 -7.48751,2.78947 -1.75082,1.85158 -2.49584,4.37949 -2.49584,7.78114 0,2.79887 0.57372,4.99193 1.76177,6.60663 1.18804,1.59321 3.05263,2.8953 5.72574,3.67035 l 1.46814,0.44045 c 2.6731,0.79661 4.50368,1.63466 5.28531,2.49583 0.79722,0.86119 1.17449,2.05564 1.17451,3.67035 -2e-5,1.74391 -0.52072,3.14197 -1.61495,4.11079 -1.09427,0.94731 -2.66588,1.46815 -4.69805,1.46815 -1.51634,0 -3.15047,-0.32111 -4.69805,-0.88089 -1.5476,-0.58129 -3.10357,-1.50157 -4.69805,-2.64265 l 0,6.16619 c 1.68827,0.75353 3.32853,1.24895 4.84486,1.61495 1.53195,0.38753 2.99752,0.58726 4.40442,0.58726 3.37654,0 6.00518,-0.97709 7.92796,-2.93628 1.93837,-1.95919 2.93626,-4.56933 2.93628,-7.92796 -2e-5,-2.94954 -0.61113,-5.26399 -1.90858,-6.90026 -1.28186,-1.65776 -3.54274,-2.9129 -6.60663,-3.81717 l -1.46814,-0.44043 c -2.31358,-0.71046 -3.78527,-1.42713 -4.55124,-2.20221 -0.76598,-0.79658 -1.17451,-1.852 -1.17451,-3.22991 0,-1.80846 0.55196,-3.20652 1.61496,-4.11079 1.07861,-0.90422 2.70323,-1.3213 4.84486,-1.32133 1.40688,3e-5 2.65086,0.15668 3.96398,0.58725 1.31308,0.43063 2.59783,1.04743 3.81716,1.90859 l 0,-5.57894 c -1.18807,-0.64585 -2.41028,-1.14516 -3.81716,-1.46814 -1.40692,-0.3229 -2.95676,-0.4404 -4.55124,-0.44044 z"
       id="path2992"
       inkscape:connector-curvature="0"
       inkscape:export-filename="/Users/anivamainali/Desktop/Projects/WS/MyWS/Laexian_Box2D_Editor/com.laex.cg2d.core/icons/sloot_64x64.png"
       inkscape:export-xdpi="90"
       inkscape:export-ydpi="90" />
    <path
       inkscape:connector-curvature="0"
       id="path2994"
       d="m 210.38677,-11.18045 0,11.11883965 15.11021,0 0,-11.11883965 -15.11021,0 z m 82.10836,19.3866946 c -13.17225,5.4e-5 -23.30273,2.4843034 -30.79064,7.4125614 -7.43329,4.928352 -11.11885,11.807804 -11.11883,20.527089 -2e-5,8.687744 3.68554,15.567198 11.11883,20.527088 7.48791,4.928311 17.61839,7.412562 30.79064,7.412562 13.11751,0 23.58773,-2.484251 31.07574,-7.412562 7.48786,-4.95989 11.11875,-11.839344 11.11885,-20.527088 -1e-4,-8.719285 -3.63099,-15.598737 -11.11885,-20.527089 -7.48801,-4.928258 -17.95823,-7.4125074 -31.07574,-7.4125614 z m -82.10836,1.425492 0,53.0283174 15.11021,0 0,-53.0283174 -15.11021,0 z m 82.10836,5.9870694 c 8.03445,4.7e-5 14.40107,2.005781 19.1016,5.701969 4.70039,3.66468 7.12738,8.538398 7.12746,14.82512 -8e-5,6.318369 -2.42707,11.445593 -7.12746,15.110218 -4.70053,3.664651 -11.06715,5.416878 -19.1016,5.41687 -8.14387,8e-6 -14.40118,-1.783811 -19.1016,-5.41687 -4.64584,-3.664625 -7.1275,-8.760258 -7.12746,-15.110218 -4e-5,-6.349906 2.42697,-11.192033 7.12746,-14.82512 4.70042,-3.664597 11.0124,-5.701922 19.1016,-5.701969 z m -25.37377,46.756148 c -6.25339,7e-5 -11.14014,1.821421 -14.54001,5.416874 -3.39992,3.595581 -4.84667,8.504545 -4.84667,15.110215 0,5.435135 1.11408,9.693844 3.42116,12.829434 2.30706,3.09385 5.92793,5.622393 11.11885,7.127463 l 2.85098,0.8553 c 5.1909,1.54694 8.74571,3.17436 10.26356,4.84667 1.54812,1.67235 2.28074,3.99185 2.28078,7.12746 -4e-5,3.3865 -1.01119,6.10139 -3.13609,7.98275 -2.12495,1.83958 -5.17686,2.851 -9.12314,2.85099 -2.94458,1e-5 -6.1179,-0.62355 -9.12315,-1.71059 -3.00529,-1.12882 -6.02683,-2.91591 -9.12316,-5.13177 l 0,11.97413 c 3.27846,1.4633 6.46368,2.42535 9.40825,3.13608 2.9749,0.75256 5.82087,1.1404 8.55295,1.1404 6.55691,0 11.66147,-1.8974 15.39532,-5.70197 3.76413,-3.80455 5.70193,-8.87319 5.70197,-15.39531 -4e-5,-5.72773 -1.18675,-10.22216 -3.70627,-13.39964 -2.48925,-3.219213 -6.87966,-5.656573 -12.82943,-7.412563 l -2.85099,-0.85529 c -4.49274,-1.37962 -7.35062,-2.77133 -8.83806,-4.27647 -1.48748,-1.546872 -2.2808,-3.596389 -2.28078,-6.272171 -2e-5,-3.511848 1.07185,-6.22675 3.13609,-7.982754 2.09456,-1.755891 5.24941,-2.565824 9.40825,-2.565886 2.73202,6.2e-5 5.14769,0.304261 7.69766,1.14039 2.54987,0.836232 5.04473,2.034005 7.41255,3.70628 l 0,-10.833744 c -2.30712,-1.254178 -4.68053,-2.223785 -7.41255,-2.850985 -2.7321,-0.627052 -5.74176,-0.855223 -8.83807,-0.855293 z"
       style="font-size:13.99213886px;font-style:normal;font-weight:normal;line-height:125%;letter-spacing:0px;word-spacing:0px;fill:#000000;fill-opacity:1;stroke:none;font-family:Sans"
       inkscape:export-filename="/Users/anivamainali/Desktop/Projects/WS/MyWS/Laexian_Box2D_Editor/com.laex.cg2d.core/icons/sloot_124x124.png"
       inkscape:export-xdpi="90"
       inkscape:export-ydpi="90" />
    <path
       inkscape:export-ydpi="90"
       inkscape:export-xdpi="90"
       inkscape:export-filename="/Users/anivamainali/Desktop/Projects/WS/MyWS/Laexian_Box2D_Editor/com.laex.cg2d.core/icons/sloot_48x48.png"
       inkscape:connector-curvature="0"
       id="path2996"
       d="m 66.148198,0.03244303 0,4.33895137 5.89652,0 0,-4.33895137 -5.89652,0 z m 32.04149,7.56535077 c -5.14026,2.12e-5 -9.09352,0.9694597 -12.01556,2.8926342 -2.90073,1.923212 -4.33896,4.607809 -4.33895,8.010372 -1e-5,3.390254 1.43822,6.074853 4.33895,8.010371 2.92204,1.923195 6.8753,2.892635 12.01556,2.892635 5.118902,0 9.204732,-0.96944 12.126812,-2.892635 2.92202,-1.935518 4.33892,-4.620117 4.33896,-8.010371 -4e-5,-3.402563 -1.41694,-6.08716 -4.33896,-8.010372 -2.92208,-1.9231745 -7.00791,-2.892613 -12.126812,-2.8926342 z m -32.04149,0.5562757 0,20.6934615 5.89652,0 0,-20.6934615 -5.89652,0 z m 32.04149,2.3363585 c 3.135312,1.9e-5 5.619792,0.782725 7.454092,2.225103 1.83426,1.430084 2.78135,3.331975 2.78138,5.785269 -3e-5,2.465643 -0.94712,4.466461 -2.78138,5.896523 -1.8343,1.430072 -4.31878,2.113851 -7.454092,2.113848 -3.17802,3e-6 -5.61984,-0.696104 -7.4541,-2.113848 -1.81297,-1.430062 -2.78139,-3.418552 -2.78138,-5.896523 -10e-6,-2.47795 0.94709,-4.367514 2.78138,-5.785269 1.83426,-1.430051 4.29741,-2.225084 7.4541,-2.225103 z m -9.90171,18.245847 c -2.4403,2.7e-5 -4.34727,0.71078 -5.67401,2.113849 -1.32677,1.403119 -1.89135,3.318764 -1.89135,5.896522 0,2.120976 0.43476,3.78287 1.33506,5.006484 0.9003,1.207325 2.31328,2.19405 4.33896,2.781377 l 1.11255,0.333768 c 2.02566,0.603668 3.41287,1.238743 4.00519,1.891336 0.60413,0.652609 0.89002,1.557758 0.89004,2.781379 -2e-5,1.321527 -0.3946,2.38097 -1.22381,3.115143 -0.82924,0.717866 -2.02019,1.112557 -3.56017,1.112554 -1.14907,3e-6 -2.38741,-0.24333 -3.56016,-0.66753 -1.17276,-0.440505 -2.35187,-1.13789 -3.56016,-2.002594 l 0,4.672715 c 1.27936,0.571029 2.52235,0.946454 3.67142,1.223806 1.1609,0.293672 2.2715,0.445024 3.33765,0.445024 2.55873,0 4.5507,-0.740433 6.00778,-2.225104 1.46889,-1.484669 2.22509,-3.462624 2.2251,-6.007779 -1e-5,-2.235153 -0.46311,-3.989035 -1.44631,-5.228994 -0.97139,-1.256247 -2.68468,-2.207387 -5.00649,-2.892635 l -1.11254,-0.333762 c -1.75323,-0.538378 -2.86847,-1.081469 -3.44892,-1.668828 -0.58046,-0.603641 -0.89005,-1.403433 -0.89004,-2.447614 -1e-5,-1.370444 0.41827,-2.429891 1.22381,-3.115144 0.81736,-0.685208 2.0485,-1.001272 3.67141,-1.001296 1.06614,2.4e-5 2.00882,0.118733 3.00389,0.445019 0.99506,0.326326 1.96864,0.793738 2.89264,1.446317 l 0,-4.227697 c -0.90031,-0.489423 -1.82651,-0.867797 -2.89264,-1.112552 -1.06615,-0.244697 -2.24062,-0.333737 -3.4489,-0.333764 z"
       style="font-size:13.99213886px;font-style:normal;font-weight:normal;line-height:125%;letter-spacing:0px;word-spacing:0px;fill:#000000;fill-opacity:1;stroke:none;font-family:Sans" />
  </g>
</svg>
