<?xml version="1.0" encoding="UTF-8" standalone="no"?>
<!-- Created with Inkscape (http://www.inkscape.org/) -->

<svg
   xmlns:dc="http://purl.org/dc/elements/1.1/"
   xmlns:cc="http://creativecommons.org/ns#"
   xmlns:rdf="http://www.w3.org/1999/02/22-rdf-syntax-ns#"
   xmlns:svg="http://www.w3.org/2000/svg"
   xmlns="http://www.w3.org/2000/svg"
   xmlns:sodipodi="http://sodipodi.sourceforge.net/DTD/sodipodi-0.dtd"
   xmlns:inkscape="http://www.inkscape.org/namespaces/inkscape"
   width="16px"
   height="16px"
   id="svg2985"
   version="1.1"
   inkscape:version="0.48.0 r9654"
   sodipodi:docname="New document 2">
  <defs
     id="defs2987" />
  <sodipodi:namedview
     id="base"
     pagecolor="#ffffff"
     bordercolor="#666666"
     borderopacity="1.0"
     inkscape:pageopacity="0.0"
     inkscape:pageshadow="2"
     inkscape:zoom="22.197802"
     inkscape:cx="8"
     inkscape:cy="8"
     inkscape:current-layer="layer1"
     showgrid="true"
     inkscape:grid-bbox="true"
     inkscape:document-units="px"
     inkscape:window-width="1280"
     inkscape:window-height="694"
     inkscape:window-x="0"
     inkscape:window-y="0"
     inkscape:window-maximized="0" />
  <metadata
     id="metadata2990">
    <rdf:RDF>
      <cc:Work
         rdf:about="">
        <dc:format>image/svg+xml</dc:format>
        <dc:type
           rdf:resource="http://purl.org/dc/dcmitype/StillImage" />
        <dc:title></dc:title>
      </cc:Work>
    </rdf:RDF>
  </metadata>
  <g
     id="layer1"
     inkscape:label="Layer 1"
     inkscape:groupmode="layer">
    <path
       style="fill:#00ff00;stroke:#000000;stroke-width:1.36118304999999995px;stroke-linecap:butt;stroke-linejoin:miter;stroke-opacity:1"
       d="M 3.4852838,0.81606824 C 3.3259116,0.828471 3.18256,0.69708238 3.0298482,0.6509416 c -0.029949,-0.00905 -0.060725,0 -0.091087,0 -0.075906,0 -0.1518119,0 -0.2277179,0 -0.091087,0 -0.1821743,0 -0.2732614,0 -0.030362,0 -0.061314,-0.0107871 -0.091087,0 C 2.2996209,0.6680105 2.2562249,0.7095961 2.2100643,0.733503 2.141968,0.76877407 1.9640581,0.83264432 1.8912595,0.89862957 1.8423018,0.9430048 1.8001727,1.0087133 1.7546287,1.0637562 1.6202845,1.2261196 1.5909519,1.2381809 1.4813674,1.4765716 1.446326,1.5528021 1.4253208,1.6480309 1.3902805,1.7242609 1.34983,1.8122581 1.203013,2.0490807 1.1625627,2.1370765 1.1139687,2.2427871 1.0700509,2.355355 1.0259319,2.4673289 0.9941171,2.5480739 0.9570755,2.6243412 0.9348451,2.7150182 c -0.09909,0.4041786 -0.075487,0.4561527 -0.13663082,0.825632 -0.0275893,0.1667164 -0.0634978,0.3286612 -0.0910872,0.4953787 -0.0476014,0.2876484 -0.0539401,0.4400359 -0.0910871,0.7430679 -0.0135783,0.1107686 -0.0386311,0.2174742 -0.0455431,0.3302524 -0.008381,0.1367639 0,0.2752104 0,0.4128156 0,0.1651267 0,0.3302524 0,0.4953786 0,0.3027315 0,0.6054627 0,0.9081942 0,0.1651266 -0.0138502,0.3321725 0,0.4953786 0.0168053,0.1980263 0.0522812,0.3903426 0.0910872,0.5779418 0.0293585,0.141925 0.30417075,1.2508433 0.36434862,1.4035728 0.074873,0.1900252 0.1821743,0.3302519 0.2732615,0.495379 0.075906,0.1376062 0.1518118,0.2752102 0.2277178,0.4128152 0.3448428,0.625144 0.2052143,0.39735 0.5920664,0.990756 0.090514,0.138847 0.1763944,0.288861 0.2732613,0.412817 0.1617095,0.206932 0.3350191,0.382383 0.5009794,0.577941 0.3890942,0.458488 0.7547157,0.987384 1.1841327,1.321011 0.2296423,0.178406 0.3047608,0.174649 0.5465229,0.247689 0.3631092,0.109707 0.1809179,0.08255 0.5465228,0.08255 0.075907,0 0.1526946,0.02093 0.2277179,0 C 5.5914227,13.889678 5.9089529,13.718207 6.081269,13.530778 6.2114467,13.389176 6.3270723,13.207322 6.4456176,13.0354 6.5549102,12.876891 6.6698451,12.727058 6.764422,12.540019 6.838395,12.39373 6.8922825,12.21695 6.9465964,12.044641 c 0.1564204,-0.496236 0.2559534,-0.916442 0.3188039,-1.48613 0.029922,-0.271212 0.023967,-0.551829 0.045543,-0.8256314 0.069532,-0.8823548 0.1097194,-0.821902 0.1366307,-1.6512622 0.00712,-0.2197884 0,-0.4403367 0,-0.660505 0,-0.3027313 0,-0.6054627 0,-0.908194 0,-0.2476895 0.012371,-0.4963961 0,-0.7430682 C 7.4392133,5.6031374 7.4201404,5.4386289 7.4020299,5.2744758 7.3897553,5.1632071 7.381909,5.0479156 7.3564874,4.9442236 7.3205357,4.7975806 7.262245,4.6722871 7.2198566,4.5314079 7.171091,4.3693337 7.1416266,4.1872731 7.083226,4.0360294 7.0339782,3.9084891 6.9546991,3.8273444 6.9010516,3.7057768 6.8326643,3.5508079 6.7860874,3.3670507 6.7188774,3.2103982 6.5718153,2.8676272 6.6118101,3.0486519 6.4456159,2.7975826 6.3961361,2.7228335 6.3584651,2.6246424 6.3089852,2.5498933 6.2669355,2.486369 6.2150966,2.4467546 6.1723546,2.3847671 6.1388249,2.3361402 6.1147971,2.2682679 6.0812674,2.2196409 6.0385254,2.1576534 5.9866865,2.1180391 5.9446367,2.0545147 5.7873269,1.8168673 5.8638623,1.8308161 5.7169188,1.7242624 5.6277718,1.6596186 5.5328044,1.6237796 5.4436575,1.5591361 5.3222079,1.4710686 5.3669885,1.4487753 5.2159395,1.3940098 c -0.029772,-0.010787 -0.060725,0 -0.091087,0 -0.060725,0 -0.1214494,0 -0.1821743,0 -0.030362,0 -0.061314,0.010787 -0.091087,0 -0.047075,-0.017069 -0.090057,-0.061454 -0.1366308,-0.082564 -0.038805,-0.017594 -0.096477,0 -0.1366307,0 -0.091087,0 -0.1821742,0 -0.2732614,0 -0.01518,0 -0.030362,0 -0.045544,0 -0.015181,0 -0.034808,0.019453 -0.045545,0 -0.01073,-0.019453 0,-0.055043 0,-0.082561"
       id="path3014"
       inkscape:connector-curvature="0" />
    <path
       style="fill:none;stroke:#000000;stroke-width:1.36118305px;stroke-linecap:butt;stroke-linejoin:miter;stroke-opacity:1"
       d="m 9.2693176,-0.33981535 c 0,1.37615895 0.0094,-0.91929815 -0.045545,1.07332048 -0.0091,0.32984047 0,0.66050467 0,0.99075727 0,0.3852944 0,0.770589 0,1.1558833 0,0.9632363 0,1.9264726 0,2.8897087 0,3.3850875 0,6.7701736 0,10.1552606"
       id="path3016"
       inkscape:connector-curvature="0" />
    <path
       style="fill:none;stroke:#000000;stroke-width:1.36118305px;stroke-linecap:butt;stroke-linejoin:miter;stroke-opacity:1"
       d="m 12.184105,2.302204 c -0.07591,0.1100838 -0.16269,0.1992687 -0.227717,0.3302524 -0.07323,0.1475122 -0.11454,0.3393283 -0.182174,0.4953787 -0.0997,0.2300395 -0.217041,0.4334507 -0.318806,0.6605048 -0.09573,0.2135948 -0.181043,0.4418895 -0.273261,0.6605049 -0.08644,0.2049329 -0.500486,1.1545433 -0.592067,1.4035728 -0.06789,0.1846176 -0.116463,0.3907487 -0.182174,0.5779419 -0.04075,0.1160912 -0.0964,0.2135635 -0.13663,0.3302522 -0.03598,0.1043692 -0.0574,0.2233911 -0.09109,0.3302525 -0.02715,0.086154 -0.06661,0.1589375 -0.09109,0.2476893 -0.03657,0.1325582 -0.05139,0.2832609 -0.091088,0.4128156 -0.03686,0.1202888 -0.092514,0.2182784 -0.1366308,0.3302525 -0.031815,0.080745 -0.062923,0.1626016 -0.091088,0.2476892 -0.017459,0.052771 -0.034808,0.1067447 -0.045545,0.1651266 -0.00961,0.052217 0.013578,0.1158954 0,0.1651267 -0.00961,0.034812 -0.03594,0.047751 -0.045545,0.082563 -0.00677,0.024616 0,0.055043 0,0.082561 0,0.027523 -0.012142,0.066052 0,0.082564 0.05432,0.073845 0.1214495,0.1100838 0.1821743,0.1651266 0.4432525,0.4017736 0.4573755,0.4307351 1.0019585,0.8256306 0.951849,0.6902187 0.999816,0.7006407 2.003917,1.2384487 1.747567,0.936017 0.185834,0.021 1.821743,1.073319 0.180973,0.116412 0.368229,0.200969 0.546523,0.330251 0.126072,0.09143 0.24106,0.227101 0.364349,0.330254 0.07422,0.06212 0.151811,0.11009 0.227717,0.165135"
       id="path3018"
       inkscape:connector-curvature="0" />
  </g>
</svg>
